<svg width="74" height="16" viewBox="0 0 74 16" fill="none" xmlns="http://www.w3.org/2000/svg">
<path d="M14.6947 0.0917969C14.0766 0.0917969 13.4734 0.161835 12.8954 0.29579C14.2547 1.19438 15.3593 2.44758 16.0754 3.92585C17.7746 4.50146 19.0003 6.1096 19.0003 8.00198C19.0003 10.3724 17.0675 12.3056 14.6947 12.3056C14.6457 12.3056 14.5947 12.3035 14.5461 12.2991C15.3512 11.0609 15.8207 9.58463 15.8207 8.00198C15.8207 7.60488 15.7911 7.21593 15.7337 6.83378C15.5657 5.69108 15.1496 4.62895 14.5441 3.70282C13.7495 2.4792 12.6282 1.48745 11.3026 0.858472C10.2745 0.367868 9.12293 0.0917969 7.91019 0.0917969C3.7426 0.0917969 0.31653 3.33325 0.0210793 7.42638C0.00849973 7.61542 0 7.80649 0 8.00198C0 12.3627 3.54711 15.9081 7.91019 15.9081C9.12293 15.9081 10.2745 15.6341 11.3023 15.1435C12.3324 15.6341 13.4816 15.9081 14.6943 15.9081C19.0574 15.9081 22.6045 12.363 22.6045 8.00198C22.6045 3.64094 19.0577 0.0917969 14.6947 0.0917969ZM8.05876 12.2991C8.0098 12.3035 7.95881 12.3056 7.91019 12.3056C5.69686 12.3056 3.86602 10.6253 3.6321 8.47355C3.6151 8.31647 3.60456 8.16144 3.60456 8.00198C3.60456 5.62512 5.5374 3.69636 7.91019 3.69636C7.96118 3.69636 8.01014 3.69636 8.06114 3.70282C7.25401 4.93698 6.78448 6.41729 6.78448 8.00198C6.78448 9.09369 7.00752 10.1368 7.41108 11.084C7.57054 11.1074 7.73407 11.118 7.89761 11.118C9.07227 11.118 10.1045 10.5104 10.6971 9.59075C10.4975 9.10015 10.3911 8.56263 10.3911 8.00198C10.3911 7.00582 10.7311 6.08615 11.3023 5.35755C11.8758 6.08615 12.2158 7.00582 12.2158 8.00198C12.2158 8.02748 12.2158 8.04856 12.2138 8.06998C12.2073 8.38855 12.1692 8.69658 12.0968 8.99407C11.9673 9.54859 11.7293 10.0603 11.4043 10.5084C11.4043 10.5104 11.4022 10.5104 11.4022 10.5104C11.3703 10.5573 11.3363 10.5998 11.3023 10.6444C10.5441 11.6195 9.37554 12.2586 8.05876 12.2991V12.2991Z" fill="#3B5998"/>
<path d="M30.9337 6.91659C28.9073 6.48107 28.2107 6.20092 28.2107 5.32986C28.2107 4.26366 29.1008 3.53064 30.7406 3.53064C32.3803 3.53064 33.2194 4.19328 33.5699 5.20645H35.5602C35.2097 3.26919 33.7974 1.68042 30.7236 1.68042C28.3848 1.68042 26.2374 2.95504 26.2374 5.38052C26.2374 7.66831 28.0876 8.33095 30.4621 8.85555C32.7305 9.36112 33.727 9.55219 33.727 10.6888C33.727 11.8254 32.7839 12.469 31.1421 12.469C29.2048 12.469 28.2617 11.7363 27.8965 10.3216H25.9062C26.2377 12.4329 27.7395 14.3192 31.1615 14.3192C33.3428 14.3192 35.7177 13.272 35.7177 10.6021C35.7177 8.24425 34.0225 7.59861 30.934 6.91659H30.9337Z" fill="#3B5998"/>
<path d="M41.3737 4.29968C38.6314 4.29968 36.397 6.41101 36.397 9.3084C36.397 12.2058 38.5977 14.3192 41.3737 14.3192C44.1497 14.3192 46.3485 12.1888 46.3485 9.3084C46.3485 6.42801 44.131 4.29968 41.3737 4.29968V4.29968ZM41.3737 12.4329C39.6979 12.4329 38.3873 11.1607 38.3873 9.3084C38.3873 7.45614 39.7149 6.1839 41.3737 6.1839C43.0325 6.1839 44.3582 7.45852 44.3582 9.3084C44.3582 11.1583 43.0495 12.4329 41.3737 12.4329Z" fill="#3B5998"/>
<path d="M52.109 4.29968C49.369 4.29968 47.1343 6.41101 47.1343 9.3084C47.1343 12.2058 49.3326 14.3192 52.109 14.3192C54.8854 14.3192 57.0837 12.1888 57.0837 9.3084C57.0837 6.42801 54.8663 4.29968 52.109 4.29968V4.29968ZM52.109 12.4329C50.4332 12.4329 49.1246 11.1607 49.1246 9.3084C49.1246 7.45614 50.4502 6.1839 52.109 6.1839C53.7678 6.1839 55.0934 7.45852 55.0934 9.3084C55.0934 11.1583 53.7848 12.4329 52.109 12.4329Z" fill="#3B5998"/>
<path d="M63.3519 4.29968C61.8332 4.29968 60.733 5.06636 60.1574 6.41102V4.50776H58.1841V14.109H60.1574V9.70993C60.1574 7.33715 61.536 6.32398 63.3349 6.32398C63.596 6.32398 63.7534 6.34098 63.9275 6.35798V4.35068C63.7874 4.31668 63.596 4.29968 63.3519 4.29968V4.29968Z" fill="#3B5998"/>
<path d="M72.027 4.50837V8.80753H72.0121C72.0331 8.96902 72.044 9.13664 72.044 9.30867C72.044 11.1609 70.7718 12.4332 69.0956 12.4332C67.4195 12.4332 66.2322 11.1609 66.2322 9.30867C66.2322 7.45641 67.4195 6.18417 69.0956 6.18417C69.9368 6.18417 70.6759 6.5092 71.2049 7.06576V5.20296C70.5423 4.64232 69.6842 4.30029 68.6581 4.30029C66.1452 4.30029 64.2419 6.37763 64.2419 9.30901C64.2419 12.2404 66.1092 14.3198 68.6751 14.3198C70.1768 14.3198 71.3304 13.6038 72.027 12.5036V14.1093H74.0003V4.50837H72.027Z" fill="#3B5998"/>
</svg>
